<?xml version="1.0" encoding="UTF-8"?>
<!-- Generator: Adobe Illustrator 21.1.0, SVG Export Plug-In . SVG Version: 6.00 Build 0)  -->
<svg version="1.1" id="Layer_1" xmlns="http://www.w3.org/2000/svg" xmlns:xlink="http://www.w3.org/1999/xlink" x="0px" y="0px" viewBox="0 0 246.4 246.4" enable-background="new 0 0 246.4 246.4" xml:space="preserve" width="16px">
<path fill="#FFFFFF" d="M125.4,0C58.7,0,4.4,53.9,4.4,120.1c0,21.4,5.7,42.4,16.6,60.7L0.2,242.2c-0.4,1.1-0.1,2.4,0.7,3.3  c0.6,0.6,1.4,1,2.3,1c0.3,0,0.7,0,1-0.1l63.9-20.3c17.5,9.3,37.3,14.3,57.3,14.3c66.7,0,121-53.9,121-120.1  C246.4,53.9,192.1,0,125.4,0L125.4,0z M125.4,215.2c-18.8,0-37.1-5.4-52.7-15.7c-0.5-0.3-1.1-0.5-1.8-0.5c-0.3,0-0.7,0.1-1,0.2  l-32,10.2l10.3-30.5c0.3-1,0.2-2.1-0.5-2.9c-11.9-16.3-18.3-35.6-18.3-55.7c0-52.4,43-95.1,95.9-95.1c52.9,0,95.8,42.7,95.8,95.1  C221.2,172.5,178.2,215.2,125.4,215.2L125.4,215.2z M125.4,215.2"/>
<path fill="#FFFFFF" d="M182.3,141.6c-0.5-0.2-18.4-9.1-21.6-10.2c-1.3-0.5-2.7-0.9-4.2-0.9c-2.4,0-4.5,1.2-6.1,3.6  c-1.8,2.7-7.2,9-8.9,10.9c-0.2,0.3-0.5,0.5-0.7,0.5c-0.2,0-2.9-1.1-3.8-1.5c-19.3-8.4-33.9-28.5-35.9-31.9c-0.3-0.5-0.3-0.7-0.3-0.7  c0.1-0.3,0.7-0.9,1.1-1.2c1-1,2-2.2,3.1-3.5c0.5-0.6,1-1.2,1.4-1.7c1.5-1.7,2.1-3.1,2.9-4.6l0.4-0.8c1.9-3.7,0.3-6.9-0.2-7.9  c-0.4-0.8-8-19.2-8.8-21.1c-1.9-4.6-4.5-6.8-8.1-6.8c-0.3,0,0,0-1.4,0.1c-1.7,0.1-10.9,1.3-14.9,3.8C72,70.3,64.7,79,64.7,94.2  c0,13.7,8.7,26.6,12.4,31.6c0.1,0.1,0.3,0.4,0.5,0.7c14.3,20.9,32.1,36.4,50.2,43.6c17.4,6.9,25.6,7.7,30.3,7.7h0  c2,0,3.5-0.2,4.9-0.3l0.9-0.1c6-0.5,19.2-7.4,22.2-15.7c2.4-6.6,3-13.8,1.4-16.4C186.5,143.6,184.7,142.7,182.3,141.6L182.3,141.6z   M182.3,141.6"/>
</svg>